<svg height="1854" width="720" xmlns="http://www.w3.org/2000/svg">
<rect height="1854" fill="#555" width="720"></rect>
<text fill="#7f7" font-family="Courier New" font-size="12" xml:space="preserve">
<tspan x="10" y="26">14 megabytes installed</tspan>
<tspan x="10" y="42"></tspan>
<tspan x="10" y="58">node_modules</tspan>
<tspan x="10" y="74">└─┬ javascripting@2.6.1 </tspan>
<tspan x="10" y="90">  ├── colors@1.1.2 </tspan>
<tspan x="10" y="106">  ├── diff@1.4.0 </tspan>
<tspan x="10" y="122">  ├─┬ promise@7.1.1 </tspan>
<tspan x="10" y="138">  │ └── asap@2.0.5 </tspan>
<tspan x="10" y="154">  └─┬ workshopper-adventure@5.1.8 </tspan>
<tspan x="10" y="170">    ├── after@0.8.2 </tspan>
<tspan x="10" y="186">    ├─┬ chalk@1.1.3 </tspan>
<tspan x="10" y="202">    │ ├── ansi-styles@2.2.1 </tspan>
<tspan x="10" y="218">    │ ├── escape-string-regexp@1.0.5 </tspan>
<tspan x="10" y="234">    │ ├── has-ansi@2.0.0 </tspan>
<tspan x="10" y="250">    │ ├── strip-ansi@3.0.1 </tspan>
<tspan x="10" y="266">    │ └── supports-color@2.0.0 </tspan>
<tspan x="10" y="282">    ├─┬ colors-tmpl@1.0.0 </tspan>
<tspan x="10" y="298">    │ └── colors@1.0.3 </tspan>
<tspan x="10" y="314">    ├─┬ combined-stream-wait-for-it@1.1.0 </tspan>
<tspan x="10" y="330">    │ └── delayed-stream@1.0.0 </tspan>
<tspan x="10" y="346">    ├─┬ commandico@2.0.2 </tspan>
<tspan x="10" y="362">    │ ├── explicit@0.1.1 </tspan>
<tspan x="10" y="378">    │ ├─┬ joi@6.10.1 </tspan>
<tspan x="10" y="394">    │ │ ├── hoek@2.16.3 </tspan>
<tspan x="10" y="410">    │ │ ├── isemail@1.2.0 </tspan>
<tspan x="10" y="426">    │ │ ├── moment@2.18.1 </tspan>
<tspan x="10" y="442">    │ │ └── topo@1.1.0 </tspan>
<tspan x="10" y="458">    │ └── minimist@1.2.0 </tspan>
<tspan x="10" y="474">    ├─┬ i18n-core@2.1.1 </tspan>
<tspan x="10" y="490">    │ ├── mustache@0.8.2 </tspan>
<tspan x="10" y="506">    │ └── sprintf@0.1.5 </tspan>
<tspan x="10" y="522">    ├─┬ latest-version@2.0.0 </tspan>
<tspan x="10" y="538">    │ └─┬ package-json@2.4.0 </tspan>
<tspan x="10" y="554">    │   ├─┬ got@5.7.1 </tspan>
<tspan x="10" y="570">    │   │ ├─┬ create-error-class@3.0.2 </tspan>
<tspan x="10" y="586">    │   │ │ └── capture-stack-trace@1.0.0 </tspan>
<tspan x="10" y="602">    │   │ ├── duplexer2@0.1.4 </tspan>
<tspan x="10" y="618">    │   │ ├── is-redirect@1.0.0 </tspan>
<tspan x="10" y="634">    │   │ ├── is-retry-allowed@1.1.0 </tspan>
<tspan x="10" y="650">    │   │ ├── is-stream@1.1.0 </tspan>
<tspan x="10" y="666">    │   │ ├── lowercase-keys@1.0.0 </tspan>
<tspan x="10" y="682">    │   │ ├── node-status-codes@1.0.0 </tspan>
<tspan x="10" y="698">    │   │ ├── object-assign@4.1.1 </tspan>
<tspan x="10" y="714">    │   │ ├─┬ parse-json@2.2.0 </tspan>
<tspan x="10" y="730">    │   │ │ └─┬ error-ex@1.3.1 </tspan>
<tspan x="10" y="746">    │   │ │   └── is-arrayish@0.2.1 </tspan>
<tspan x="10" y="762">    │   │ ├─┬ pinkie-promise@2.0.1 </tspan>
<tspan x="10" y="778">    │   │ │ └── pinkie@2.0.4 </tspan>
<tspan x="10" y="794">    │   │ ├── read-all-stream@3.1.0 </tspan>
<tspan x="10" y="810">    │   │ ├── timed-out@3.1.3 </tspan>
<tspan x="10" y="826">    │   │ ├── unzip-response@1.0.2 </tspan>
<tspan x="10" y="842">    │   │ └─┬ url-parse-lax@1.0.0 </tspan>
<tspan x="10" y="858">    │   │   └── prepend-http@1.0.4 </tspan>
<tspan x="10" y="874">    │   ├─┬ registry-auth-token@3.1.2 </tspan>
<tspan x="10" y="890">    │   │ └─┬ rc@1.2.1 </tspan>
<tspan x="10" y="906">    │   │   ├── deep-extend@0.4.1 </tspan>
<tspan x="10" y="922">    │   │   ├── ini@1.3.4 </tspan>
<tspan x="10" y="938">    │   │   └── strip-json-comments@2.0.1 </tspan>
<tspan x="10" y="954">    │   ├── registry-url@3.1.0 </tspan>
<tspan x="10" y="970">    │   └── semver@5.3.0 </tspan>
<tspan x="10" y="986">    ├─┬ msee@0.3.3 </tspan>
<tspan x="10" y="1002">    │ ├── ansi-regex@2.1.1 </tspan>
<tspan x="10" y="1018">    │ ├── ansicolors@0.3.2 </tspan>
<tspan x="10" y="1034">    │ ├─┬ cardinal@0.7.1 </tspan>
<tspan x="10" y="1050">    │ │ ├── ansicolors@0.2.1 </tspan>
<tspan x="10" y="1066">    │ │ └─┬ redeyed@0.6.0 </tspan>
<tspan x="10" y="1082">    │ │   └── esprima@2.7.3 </tspan>
<tspan x="10" y="1098">    │ ├── entities@1.1.1 </tspan>
<tspan x="10" y="1114">    │ ├── marked@0.3.6 </tspan>
<tspan x="10" y="1130">    │ ├─┬ nopt@3.0.6 </tspan>
<tspan x="10" y="1146">    │ │ └── abbrev@1.1.0 </tspan>
<tspan x="10" y="1162">    │ ├─┬ table-header@0.2.2 </tspan>
<tspan x="10" y="1178">    │ │ └── repeat-string@1.6.1 </tspan>
<tspan x="10" y="1194">    │ ├── text-table@0.2.0 </tspan>
<tspan x="10" y="1210">    │ ├─┬ wcstring@2.1.1 </tspan>
<tspan x="10" y="1226">    │ │ ├── varsize-string@2.2.2 </tspan>
<tspan x="10" y="1242">    │ │ └── wcsize@1.0.0 </tspan>
<tspan x="10" y="1258">    │ └── xtend@4.0.1 </tspan>
<tspan x="10" y="1274">    ├─┬ simple-terminal-menu@1.1.3 </tspan>
<tspan x="10" y="1290">    │ └─┬ extended-terminal-menu@2.1.4 </tspan>
<tspan x="10" y="1306">    │   ├── charm_inheritance-fix@1.0.1 </tspan>
<tspan x="10" y="1322">    │   ├─┬ duplexer2@0.0.2 </tspan>
<tspan x="10" y="1338">    │   │ └─┬ readable-stream@1.1.14 </tspan>
<tspan x="10" y="1354">    │   │   ├── isarray@0.0.1 </tspan>
<tspan x="10" y="1370">    │   │   └── string_decoder@0.10.31 </tspan>
<tspan x="10" y="1386">    │   ├── resumer@0.0.0 </tspan>
<tspan x="10" y="1402">    │   └─┬ through2@0.6.5 </tspan>
<tspan x="10" y="1418">    │     └── readable-stream@1.0.34 </tspan>
<tspan x="10" y="1434">    ├─┬ split@1.0.0 </tspan>
<tspan x="10" y="1450">    │ └── through@2.3.8 </tspan>
<tspan x="10" y="1466">    ├─┬ string-to-stream@1.1.0 </tspan>
<tspan x="10" y="1482">    │ ├── inherits@2.0.3 </tspan>
<tspan x="10" y="1498">    │ └─┬ readable-stream@2.2.9 </tspan>
<tspan x="10" y="1514">    │   ├── buffer-shims@1.0.0 </tspan>
<tspan x="10" y="1530">    │   ├── core-util-is@1.0.2 </tspan>
<tspan x="10" y="1546">    │   ├── isarray@1.0.0 </tspan>
<tspan x="10" y="1562">    │   ├── process-nextick-args@1.0.7 </tspan>
<tspan x="10" y="1578">    │   ├── string_decoder@1.0.0 </tspan>
<tspan x="10" y="1594">    │   └── util-deprecate@1.0.2 </tspan>
<tspan x="10" y="1610">    ├── through2@2.0.3 </tspan>
<tspan x="10" y="1626">    └─┬ workshopper-adventure-storage@3.0.0 </tspan>
<tspan x="10" y="1642">      ├─┬ mkdirp@0.5.1 </tspan>
<tspan x="10" y="1658">      │ └── minimist@0.0.8 </tspan>
<tspan x="10" y="1674">      └─┬ rimraf@2.6.1 </tspan>
<tspan x="10" y="1690">        └─┬ glob@7.1.1 </tspan>
<tspan x="10" y="1706">          ├── fs.realpath@1.0.0 </tspan>
<tspan x="10" y="1722">          ├─┬ inflight@1.0.6 </tspan>
<tspan x="10" y="1738">          │ └── wrappy@1.0.2 </tspan>
<tspan x="10" y="1754">          ├─┬ minimatch@3.0.3 </tspan>
<tspan x="10" y="1770">          │ └─┬ brace-expansion@1.1.7 </tspan>
<tspan x="10" y="1786">          │   ├── balanced-match@0.4.2 </tspan>
<tspan x="10" y="1802">          │   └── concat-map@0.0.1 </tspan>
<tspan x="10" y="1818">          ├── once@1.4.0 </tspan>
<tspan x="10" y="1834">          └── path-is-absolute@1.0.1</tspan>
</text>
</svg>
