<svg height="1790" width="720" xmlns="http://www.w3.org/2000/svg">
<rect height="1790" fill="#555" width="720"></rect>
<text fill="#7f7" font-family="Courier New" font-size="12" xml:space="preserve">
<tspan x="10" y="26">└─┬ javascripting@2.6.1 </tspan>
<tspan x="10" y="42">  ├── colors@1.1.2 </tspan>
<tspan x="10" y="58">  ├── diff@1.4.0 </tspan>
<tspan x="10" y="74">  ├─┬ promise@7.1.1 </tspan>
<tspan x="10" y="90">  │ └── asap@2.0.5 </tspan>
<tspan x="10" y="106">  └─┬ workshopper-adventure@5.1.8 </tspan>
<tspan x="10" y="122">    ├── after@0.8.2 </tspan>
<tspan x="10" y="138">    ├─┬ chalk@1.1.3 </tspan>
<tspan x="10" y="154">    │ ├── ansi-styles@2.2.1 </tspan>
<tspan x="10" y="170">    │ ├── escape-string-regexp@1.0.5 </tspan>
<tspan x="10" y="186">    │ ├── has-ansi@2.0.0 </tspan>
<tspan x="10" y="202">    │ ├── strip-ansi@3.0.1 </tspan>
<tspan x="10" y="218">    │ └── supports-color@2.0.0 </tspan>
<tspan x="10" y="234">    ├─┬ colors-tmpl@1.0.0 </tspan>
<tspan x="10" y="250">    │ └── colors@1.0.3 </tspan>
<tspan x="10" y="266">    ├─┬ combined-stream-wait-for-it@1.1.0 </tspan>
<tspan x="10" y="282">    │ └── delayed-stream@1.0.0 </tspan>
<tspan x="10" y="298">    ├─┬ commandico@2.0.2 </tspan>
<tspan x="10" y="314">    │ ├── explicit@0.1.1 </tspan>
<tspan x="10" y="330">    │ ├─┬ joi@6.10.1 </tspan>
<tspan x="10" y="346">    │ │ ├── hoek@2.16.3 </tspan>
<tspan x="10" y="362">    │ │ ├── isemail@1.2.0 </tspan>
<tspan x="10" y="378">    │ │ ├── moment@2.18.1 </tspan>
<tspan x="10" y="394">    │ │ └── topo@1.1.0 </tspan>
<tspan x="10" y="410">    │ └── minimist@1.2.0 </tspan>
<tspan x="10" y="426">    ├─┬ i18n-core@2.1.1 </tspan>
<tspan x="10" y="442">    │ ├── mustache@0.8.2 </tspan>
<tspan x="10" y="458">    │ └── sprintf@0.1.5 </tspan>
<tspan x="10" y="474">    ├─┬ latest-version@2.0.0 </tspan>
<tspan x="10" y="490">    │ └─┬ package-json@2.4.0 </tspan>
<tspan x="10" y="506">    │   ├─┬ got@5.7.1 </tspan>
<tspan x="10" y="522">    │   │ ├─┬ create-error-class@3.0.2 </tspan>
<tspan x="10" y="538">    │   │ │ └── capture-stack-trace@1.0.0 </tspan>
<tspan x="10" y="554">    │   │ ├── duplexer2@0.1.4 </tspan>
<tspan x="10" y="570">    │   │ ├── is-redirect@1.0.0 </tspan>
<tspan x="10" y="586">    │   │ ├── is-retry-allowed@1.1.0 </tspan>
<tspan x="10" y="602">    │   │ ├── is-stream@1.1.0 </tspan>
<tspan x="10" y="618">    │   │ ├── lowercase-keys@1.0.0 </tspan>
<tspan x="10" y="634">    │   │ ├── node-status-codes@1.0.0 </tspan>
<tspan x="10" y="650">    │   │ ├── object-assign@4.1.1 </tspan>
<tspan x="10" y="666">    │   │ ├─┬ parse-json@2.2.0 </tspan>
<tspan x="10" y="682">    │   │ │ └─┬ error-ex@1.3.1 </tspan>
<tspan x="10" y="698">    │   │ │   └── is-arrayish@0.2.1 </tspan>
<tspan x="10" y="714">    │   │ ├─┬ pinkie-promise@2.0.1 </tspan>
<tspan x="10" y="730">    │   │ │ └── pinkie@2.0.4 </tspan>
<tspan x="10" y="746">    │   │ ├── read-all-stream@3.1.0 </tspan>
<tspan x="10" y="762">    │   │ ├── timed-out@3.1.3 </tspan>
<tspan x="10" y="778">    │   │ ├── unzip-response@1.0.2 </tspan>
<tspan x="10" y="794">    │   │ └─┬ url-parse-lax@1.0.0 </tspan>
<tspan x="10" y="810">    │   │   └── prepend-http@1.0.4 </tspan>
<tspan x="10" y="826">    │   ├─┬ registry-auth-token@3.1.1 </tspan>
<tspan x="10" y="842">    │   │ └─┬ rc@1.2.1 </tspan>
<tspan x="10" y="858">    │   │   ├── deep-extend@0.4.1 </tspan>
<tspan x="10" y="874">    │   │   ├── ini@1.3.4 </tspan>
<tspan x="10" y="890">    │   │   └── strip-json-comments@2.0.1 </tspan>
<tspan x="10" y="906">    │   ├── registry-url@3.1.0 </tspan>
<tspan x="10" y="922">    │   └── semver@5.3.0 </tspan>
<tspan x="10" y="938">    ├─┬ msee@0.3.3 </tspan>
<tspan x="10" y="954">    │ ├── ansi-regex@2.1.1 </tspan>
<tspan x="10" y="970">    │ ├── ansicolors@0.3.2 </tspan>
<tspan x="10" y="986">    │ ├─┬ cardinal@0.7.1 </tspan>
<tspan x="10" y="1002">    │ │ ├── ansicolors@0.2.1 </tspan>
<tspan x="10" y="1018">    │ │ └─┬ redeyed@0.6.0 </tspan>
<tspan x="10" y="1034">    │ │   └── esprima@2.7.3 </tspan>
<tspan x="10" y="1050">    │ ├── entities@1.1.1 </tspan>
<tspan x="10" y="1066">    │ ├── marked@0.3.6 </tspan>
<tspan x="10" y="1082">    │ ├─┬ nopt@3.0.6 </tspan>
<tspan x="10" y="1098">    │ │ └── abbrev@1.1.0 </tspan>
<tspan x="10" y="1114">    │ ├─┬ table-header@0.2.2 </tspan>
<tspan x="10" y="1130">    │ │ └── repeat-string@1.6.1 </tspan>
<tspan x="10" y="1146">    │ ├── text-table@0.2.0 </tspan>
<tspan x="10" y="1162">    │ ├─┬ wcstring@2.1.1 </tspan>
<tspan x="10" y="1178">    │ │ ├── varsize-string@2.2.2 </tspan>
<tspan x="10" y="1194">    │ │ └── wcsize@1.0.0 </tspan>
<tspan x="10" y="1210">    │ └── xtend@4.0.1 </tspan>
<tspan x="10" y="1226">    ├─┬ simple-terminal-menu@1.1.3 </tspan>
<tspan x="10" y="1242">    │ └─┬ extended-terminal-menu@2.1.4 </tspan>
<tspan x="10" y="1258">    │   ├── charm_inheritance-fix@1.0.1 </tspan>
<tspan x="10" y="1274">    │   ├─┬ duplexer2@0.0.2 </tspan>
<tspan x="10" y="1290">    │   │ └─┬ readable-stream@1.1.14 </tspan>
<tspan x="10" y="1306">    │   │   └── isarray@0.0.1 </tspan>
<tspan x="10" y="1322">    │   ├── resumer@0.0.0 </tspan>
<tspan x="10" y="1338">    │   └─┬ through2@0.6.5 </tspan>
<tspan x="10" y="1354">    │     └── readable-stream@1.0.34 </tspan>
<tspan x="10" y="1370">    ├─┬ split@1.0.0 </tspan>
<tspan x="10" y="1386">    │ └── through@2.3.8 </tspan>
<tspan x="10" y="1402">    ├─┬ string-to-stream@1.1.0 </tspan>
<tspan x="10" y="1418">    │ ├── inherits@2.0.3 </tspan>
<tspan x="10" y="1434">    │ └─┬ readable-stream@2.2.6 </tspan>
<tspan x="10" y="1450">    │   ├── buffer-shims@1.0.0 </tspan>
<tspan x="10" y="1466">    │   ├── core-util-is@1.0.2 </tspan>
<tspan x="10" y="1482">    │   ├── isarray@1.0.0 </tspan>
<tspan x="10" y="1498">    │   ├── process-nextick-args@1.0.7 </tspan>
<tspan x="10" y="1514">    │   ├── string_decoder@0.10.31 </tspan>
<tspan x="10" y="1530">    │   └── util-deprecate@1.0.2 </tspan>
<tspan x="10" y="1546">    ├── through2@2.0.3 </tspan>
<tspan x="10" y="1562">    └─┬ workshopper-adventure-storage@3.0.0 </tspan>
<tspan x="10" y="1578">      ├─┬ mkdirp@0.5.1 </tspan>
<tspan x="10" y="1594">      │ └── minimist@0.0.8 </tspan>
<tspan x="10" y="1610">      └─┬ rimraf@2.6.1 </tspan>
<tspan x="10" y="1626">        └─┬ glob@7.1.1 </tspan>
<tspan x="10" y="1642">          ├── fs.realpath@1.0.0 </tspan>
<tspan x="10" y="1658">          ├─┬ inflight@1.0.6 </tspan>
<tspan x="10" y="1674">          │ └── wrappy@1.0.2 </tspan>
<tspan x="10" y="1690">          ├─┬ minimatch@3.0.3 </tspan>
<tspan x="10" y="1706">          │ └─┬ brace-expansion@1.1.6 </tspan>
<tspan x="10" y="1722">          │   ├── balanced-match@0.4.2 </tspan>
<tspan x="10" y="1738">          │   └── concat-map@0.0.1 </tspan>
<tspan x="10" y="1754">          ├── once@1.4.0 </tspan>
<tspan x="10" y="1770">          └── path-is-absolute@1.0.1</tspan>
</text>
</svg>
